<mxfile host="app.diagrams.net" agent="Mozilla/5.0 (Windows NT 10.0; Win64; x64) AppleWebKit/537.36 (KHTML, like Gecko) Chrome/126.0.0.0 Safari/537.36 OPR/112.0.0.0" version="24.7.12">
  <diagram name="Página-1" id="qIUm-NXkEGmmr5HEpveH">
    <mxGraphModel grid="1" page="1" gridSize="10" guides="1" tooltips="1" connect="1" arrows="1" fold="1" pageScale="1" pageWidth="827" pageHeight="1169" math="0" shadow="0">
      <root>
        <mxCell id="0" />
        <mxCell id="1" parent="0" />
        <mxCell id="wsyl__wpP291152e83Fh-2" value="&lt;div&gt;&lt;br&gt;&lt;/div&gt;" style="rounded=0;whiteSpace=wrap;html=1;" vertex="1" parent="1">
          <mxGeometry x="202" y="160" width="808" height="190" as="geometry" />
        </mxCell>
        <mxCell id="q9j19tzaKl72bDsI_SK5-7" style="edgeStyle=orthogonalEdgeStyle;rounded=0;orthogonalLoop=1;jettySize=auto;html=1;exitX=0.5;exitY=0.5;exitDx=0;exitDy=0;exitPerimeter=0;entryX=0;entryY=0.5;entryDx=0;entryDy=0;" edge="1" parent="1" source="wsyl__wpP291152e83Fh-1" target="q9j19tzaKl72bDsI_SK5-1">
          <mxGeometry relative="1" as="geometry" />
        </mxCell>
        <mxCell id="nx8Yrjn666Zd9FFJtWJr-1" value="Envía Reporte" style="edgeLabel;html=1;align=center;verticalAlign=middle;resizable=0;points=[];" connectable="0" vertex="1" parent="q9j19tzaKl72bDsI_SK5-7">
          <mxGeometry x="-0.0095" y="3" relative="1" as="geometry">
            <mxPoint as="offset" />
          </mxGeometry>
        </mxCell>
        <mxCell id="wsyl__wpP291152e83Fh-1" value="Usuario" style="shape=umlActor;verticalLabelPosition=bottom;verticalAlign=top;html=1;outlineConnect=0;" vertex="1" parent="1">
          <mxGeometry x="50" y="225" width="30" height="60" as="geometry" />
        </mxCell>
        <mxCell id="q9j19tzaKl72bDsI_SK5-5" style="edgeStyle=orthogonalEdgeStyle;rounded=0;orthogonalLoop=1;jettySize=auto;html=1;" edge="1" parent="1" source="q9j19tzaKl72bDsI_SK5-1" target="q9j19tzaKl72bDsI_SK5-2">
          <mxGeometry relative="1" as="geometry" />
        </mxCell>
        <mxCell id="q9j19tzaKl72bDsI_SK5-1" value="Recepción de Reportes" style="ellipse;whiteSpace=wrap;html=1;" vertex="1" parent="1">
          <mxGeometry x="230" y="215" width="130" height="80" as="geometry" />
        </mxCell>
        <mxCell id="nx8Yrjn666Zd9FFJtWJr-6" style="edgeStyle=orthogonalEdgeStyle;rounded=0;orthogonalLoop=1;jettySize=auto;html=1;entryX=0;entryY=0.5;entryDx=0;entryDy=0;" edge="1" parent="1" source="q9j19tzaKl72bDsI_SK5-2" target="nx8Yrjn666Zd9FFJtWJr-2">
          <mxGeometry relative="1" as="geometry" />
        </mxCell>
        <mxCell id="q9j19tzaKl72bDsI_SK5-2" value="Almacenamiento de Reporte" style="ellipse;whiteSpace=wrap;html=1;" vertex="1" parent="1">
          <mxGeometry x="420" y="215" width="130" height="80" as="geometry" />
        </mxCell>
        <mxCell id="nx8Yrjn666Zd9FFJtWJr-7" style="edgeStyle=orthogonalEdgeStyle;rounded=0;orthogonalLoop=1;jettySize=auto;html=1;entryX=0;entryY=0.5;entryDx=0;entryDy=0;" edge="1" parent="1" source="nx8Yrjn666Zd9FFJtWJr-2" target="nx8Yrjn666Zd9FFJtWJr-3">
          <mxGeometry relative="1" as="geometry" />
        </mxCell>
        <mxCell id="nx8Yrjn666Zd9FFJtWJr-2" value="Clasificación y Categorización" style="ellipse;whiteSpace=wrap;html=1;" vertex="1" parent="1">
          <mxGeometry x="610" y="215" width="130" height="80" as="geometry" />
        </mxCell>
        <mxCell id="nx8Yrjn666Zd9FFJtWJr-3" value="Generación de Informe" style="ellipse;whiteSpace=wrap;html=1;" vertex="1" parent="1">
          <mxGeometry x="800" y="215" width="130" height="80" as="geometry" />
        </mxCell>
        <mxCell id="nx8Yrjn666Zd9FFJtWJr-4" value="Usuario Administrador" style="shape=umlActor;verticalLabelPosition=bottom;verticalAlign=top;html=1;outlineConnect=0;" vertex="1" parent="1">
          <mxGeometry x="850" y="420" width="30" height="60" as="geometry" />
        </mxCell>
        <mxCell id="nx8Yrjn666Zd9FFJtWJr-5" style="edgeStyle=orthogonalEdgeStyle;rounded=0;orthogonalLoop=1;jettySize=auto;html=1;entryX=0.5;entryY=0;entryDx=0;entryDy=0;entryPerimeter=0;" edge="1" parent="1" source="nx8Yrjn666Zd9FFJtWJr-3" target="nx8Yrjn666Zd9FFJtWJr-4">
          <mxGeometry relative="1" as="geometry" />
        </mxCell>
        <mxCell id="nx8Yrjn666Zd9FFJtWJr-8" value="Envía Notificacion" style="edgeLabel;html=1;align=center;verticalAlign=middle;resizable=0;points=[];" connectable="0" vertex="1" parent="nx8Yrjn666Zd9FFJtWJr-5">
          <mxGeometry x="0.232" relative="1" as="geometry">
            <mxPoint as="offset" />
          </mxGeometry>
        </mxCell>
      </root>
    </mxGraphModel>
  </diagram>
</mxfile>
